<svg xmlns="http://www.w3.org/2000/svg" width="22" height="26.928" viewBox="0 0 22 26.928">
    <g data-name="003-doctor-stethoscope" transform="translate(-18.422)">
        <circle cx=".801" cy=".801" r=".801" data-name="Ellipse 687" transform="translate(27.905)"/>
        <circle cx=".801" cy=".801" r=".801" data-name="Ellipse 688" transform="translate(36.928)"/>
        <path d="M39.908 2.321A3.745 3.745 0 0 0 36.625.406v1.35a2.424 2.424 0 0 1 2.125 1.239 2.476 2.476 0 0 1 0 2.479l-4.3 7.52a2.441 2.441 0 0 1-4.249 0l-4.3-7.52a2.476 2.476 0 0 1 0-2.479 2.424 2.424 0 0 1 2.125-1.24V.404a3.745 3.745 0 0 0-3.276 1.917 3.826 3.826 0 0 0 0 3.831l4.3 7.52a3.746 3.746 0 0 0 2.61 1.849v3.627c0 3.543-2.07 6.425-4.613 6.425s-4.613-2.882-4.613-6.425v-4.314a3.343 3.343 0 1 0-1.338 0v4.318c0 4.288 2.67 7.776 5.951 7.776S33 23.44 33 19.152v-3.631a3.746 3.746 0 0 0 2.614-1.855l4.3-7.52a3.825 3.825 0 0 0-.006-3.825z" data-name="Path 1478"/>
    </g>
</svg>
