<svg xmlns="http://www.w3.org/2000/svg" width="22" height="19.893" viewBox="0 0 22 19.893">
    <path d="M17.9 11.699h-6.917L9.97 12.712h1.938v6.168H7.187A3.087 3.087 0 0 1 4.2 16.558h-.11a4.939 4.939 0 0 1-.946-.092 4.1 4.1 0 0 0 4.041 3.424H17.9a4.1 4.1 0 0 0 0-8.194zm-.933 7.129h-3.389a.434.434 0 0 1 0-.868h3.392a.434.434 0 1 1 0 .868zm1.731 0h-.168a.434.434 0 0 1 0-.868h.17a.434.434 0 1 1 0 .868zM14.567 1.196a4.108 4.108 0 0 0-5.794 0L1.2 8.771a4.1 4.1 0 0 0 5.79 5.8l7.577-7.577a4.107 4.107 0 0 0 0-5.794zM6.273 13.85a3.084 3.084 0 0 1-4.361-4.361L5.25 6.151l4.361 4.361zm6.881-6.954l-2.4 2.4a.434.434 0 1 1-.614-.614l2.4-2.4a.434.434 0 0 1 .614.614zm1.224-1.225l-.119.119a.434.434 0 0 1-.614-.614l.119-.119a.434.434 0 0 1 .614.614z" data-name="004-pills"/>
</svg>
