<?xml version="1.0" encoding="UTF-8"?>
<svg width="45px" height="30px" viewBox="0 0 45 30" version="1.1" xmlns="http://www.w3.org/2000/svg" xmlns:xlink="http://www.w3.org/1999/xlink">
    <!-- Generator: Sketch 58 (84663) - https://sketch.com -->
    <title>Path</title>
    <desc>Created with Sketch.</desc>
    <defs>
        <filter x="-9.0%" y="-60.7%" width="114.2%" height="221.4%" filterUnits="objectBoundingBox" id="filter-1">
            <feOffset dx="2" dy="2" in="SourceAlpha" result="shadowOffsetOuter1"></feOffset>
            <feGaussianBlur stdDeviation="2" in="shadowOffsetOuter1" result="shadowBlurOuter1"></feGaussianBlur>
            <feColorMatrix values="0 0 0 0 0.0285558337   0 0 0 0 0.00481121863   0 0 0 0 0.493149909  0 0 0 0.224868881 0" type="matrix" in="shadowBlurOuter1" result="shadowMatrixOuter1"></feColorMatrix>
            <feMerge>
                <feMergeNode in="shadowMatrixOuter1"></feMergeNode>
                <feMergeNode in="SourceGraphic"></feMergeNode>
            </feMerge>
        </filter>
        <filter x="-35.3%" y="-60.0%" width="170.6%" height="220.0%" filterUnits="objectBoundingBox" id="filter-2">
            <feOffset dx="0" dy="2" in="SourceAlpha" result="shadowOffsetOuter1"></feOffset>
            <feGaussianBlur stdDeviation="2" in="shadowOffsetOuter1" result="shadowBlurOuter1"></feGaussianBlur>
            <feColorMatrix values="0 0 0 0 0.136743453   0 0 0 0 0.226227134   0 0 0 0 0.451907835  0 0 0 0.115466565 0" type="matrix" in="shadowBlurOuter1" result="shadowMatrixOuter1"></feColorMatrix>
            <feMerge>
                <feMergeNode in="shadowMatrixOuter1"></feMergeNode>
                <feMergeNode in="SourceGraphic"></feMergeNode>
            </feMerge>
        </filter>
    </defs>
    <g id="BN" stroke="none" stroke-width="1" fill="none" fill-rule="evenodd">
        <g id="Desktop-Full-size-call-2-/-open-info" transform="translate(-50.000000, -101.000000)" fill="#FFFFFF" fill-rule="nonzero">
            <g id="Full-screen-esc-bttn" transform="translate(54.000000, 98.000000)">
                <g id="Group-3" filter="url(#filter-1)">
                    <g id="right-arrow-copy" filter="url(#filter-2)" transform="translate(17.000000, 14.000000) scale(-1, 1) translate(-17.000000, -14.000000) translate(0.000000, 4.000000)">
                        <path d="M24.205,1.007 C23.776,0.563 23.062,0.563 22.618,1.007 C22.189,1.436 22.189,2.15 22.618,2.578 L29.665,8.625 L1.111,8.625 C0.492,8.626 0,9.118 0,9.737 C0,10.356 0.492,10.864 1.111,10.864 L29.665,10.864 L22.618,17.896 C22.189,18.34 22.189,19.055 22.618,19.483 C23.062,19.927 23.777,19.927 24.205,19.483 L33.157,10.531 C33.601,10.102 33.601,9.388 33.157,8.96 L24.205,1.007 Z" id="Path"></path>
                    </g>
                </g>
            </g>
        </g>
    </g>
</svg>