<?xml version="1.0" encoding="UTF-8"?>
<svg width="47px" height="47px" viewBox="0 0 47 47" version="1.1" xmlns="http://www.w3.org/2000/svg" xmlns:xlink="http://www.w3.org/1999/xlink">
    <!-- Generator: Sketch 58 (84663) - https://sketch.com -->
    <title>fullscreen exit</title>
    <desc>Created with Sketch.</desc>
    <g id="BN" stroke="none" stroke-width="1" fill="none" fill-rule="evenodd">
        <g id="Desktop-Full-size-call-2-/-open-info" transform="translate(-715.000000, -107.000000)" fill="#FFFFFF">
            <g id="Group-4" transform="translate(322.000000, 87.000000)">
                <g id="fullscreen-exit" transform="translate(397.000000, 22.000000)">
                    <g id="fullscreen">
                        <path d="M13.1249744,0 L11.3750051,0 C10.8913498,0 10.4999795,0.404948484 10.4999795,0.905383667 L10.4999795,10.8642645 L0.875025635,10.8642645 C0.391370329,10.8642645 0,11.269213 0,11.7696482 L0,13.5803306 C0,14.0807658 0.391370329,14.4857143 0.875025635,14.4857143 L13.1249744,14.4857143 C13.6086297,14.4857143 14,14.0807658 14,13.5803306 L14,0.905383667 C14,0.404948484 13.6086297,0 13.1249744,0 Z" id="Path" fill-rule="nonzero"></path>
                        <path d="M38.1249744,10.8642645 L28.4999385,10.8642645 L28.4999385,0.905383667 C28.4999385,0.404948484 28.1086502,0 27.6249949,0 L25.8750256,0 C25.3913703,0 25,0.404948484 25,0.905383667 L25,13.5803306 C25,14.0807658 25.3913703,14.4857143 25.8750256,14.4857143 L38.1249744,14.4857143 C38.6086297,14.4857143 39,14.0807658 39,13.5803306 L39,11.7696482 C39,11.269213 38.6086297,10.8642645 38.1249744,10.8642645 Z" id="Path" fill-rule="nonzero"></path>
                        <path d="M38.1250564,24.5142857 L25.8750256,24.5142857 C25.3913703,24.5142857 25,24.9192342 25,25.4196694 L25,38.0946163 C25,38.5950515 25.3913703,39 25.8750256,39 L27.6249949,39 C28.1086502,39 28.5000205,38.5950515 28.5000205,38.0946163 L28.5000205,28.1356506 L38.1249744,28.1356506 C38.6086297,28.1356506 39,27.7307021 39,27.230267 L39,25.4195845 C39,24.9191493 38.6087117,24.5142857 38.1250564,24.5142857 Z" id="Path" fill-rule="nonzero"></path>
                        <path d="M13.1249744,24.5142857 L0.875025635,24.5142857 C0.391370329,24.5142857 0,24.9191517 0,25.4195898 L0,27.2302829 C0,27.730721 0.391370329,28.1356718 0.875025635,28.1356718 L10.4999795,28.1356718 L10.4999795,38.094611 C10.4999795,38.5950491 10.8913498,39 11.3750051,39 L13.1249744,39 C13.6086297,39 14,38.5950491 14,38.094611 L14,25.4195898 C14,24.9191517 13.6086297,24.5142857 13.1249744,24.5142857 Z" id="Path" fill-rule="nonzero"></path>
                    </g>
                </g>
            </g>
        </g>
    </g>
</svg>