<?xml version="1.0" encoding="UTF-8"?>
<svg width="71px" height="71px" viewBox="0 0 71 71" version="1.1" xmlns="http://www.w3.org/2000/svg" xmlns:xlink="http://www.w3.org/1999/xlink">
    <!-- Generator: Sketch 58 (84663) - https://sketch.com -->
    <title>full screen icon</title>
    <desc>Created with Sketch.</desc>
    <defs>
        <filter x="-22.8%" y="-12.2%" width="153.2%" height="124.6%" filterUnits="objectBoundingBox" id="filter-1">
            <feOffset dx="10" dy="10" in="SourceAlpha" result="shadowOffsetOuter1"></feOffset>
            <feGaussianBlur stdDeviation="10" in="shadowOffsetOuter1" result="shadowBlurOuter1"></feGaussianBlur>
            <feColorMatrix values="0 0 0 0 0.522984601   0 0 0 0 0.522984601   0 0 0 0 0.522984601  0 0 0 0.124016608 0" type="matrix" in="shadowBlurOuter1" result="shadowMatrixOuter1"></feColorMatrix>
            <feMerge>
                <feMergeNode in="shadowMatrixOuter1"></feMergeNode>
                <feMergeNode in="SourceGraphic"></feMergeNode>
            </feMerge>
        </filter>
    </defs>
    <g id="BN" stroke="none" stroke-width="1" fill="none" fill-rule="evenodd">
        <g id="Desktop-On-call-reading-notes" transform="translate(-1114.000000, -227.000000)" fill="#FFFFFF">
            <g id="Group-3" filter="url(#filter-1)" transform="translate(907.000000, 222.000000)">
                <g id="full-screen-icon" transform="translate(217.841507, 15.000000)">
                    <path d="M3.333,17.722 L3.33333333,25.7777778 L12,25.777 L12,29 L0,29 L0,17.722 L3.333,17.722 Z M30,17.722 L30,29 L18,29 L18,25.777 L26.6666667,25.7777778 L26.666,17.722 L30,17.722 Z M30,0 L30,12.083 L26.666,12.083 L26.6666667,3.22222222 L18,3.222 L18,0 L30,0 Z M12,0 L12,3.222 L3.33333333,3.22222222 L3.333,12.083 L0,12.083 L0,0 L12,0 Z" id="Combined-Shape"></path>
                </g>
            </g>
        </g>
    </g>
</svg>