<svg xmlns="http://www.w3.org/2000/svg" width="35.27" height="30.453" viewBox="0 0 35.27 30.453">
    <defs>
        <style>
            .cls-1{fill:black}
        </style>
    </defs>
    <g id="_001-invisible" data-name="001-invisible" transform="translate(0 -32.053)">
        <g id="Group_4098" data-name="Group 4098" transform="translate(0 32.053)">
            <g id="Group_4097" data-name="Group 4097">
                <path id="Path_1500" d="M231.147 160.077l5.049 5.049.024-.264a4.812 4.812 0 0 0-4.808-4.808z" class="cls-1" data-name="Path 1500" transform="translate(-213.781 -150.436)"/>
                <path id="Path_1501" d="M156.042 68.061a8.017 8.017 0 0 1 8.014 8.014 7.889 7.889 0 0 1-.569 2.925l4.688 4.688a19.035 19.035 0 0 0 5.506-7.613 18.967 18.967 0 0 0-17.639-12.021 18.745 18.745 0 0 0-6.387 1.122l3.462 3.454a8.054 8.054 0 0 1 2.925-.569z" class="cls-1" data-name="Path 1501" transform="translate(-138.411 -61.65)"/>
                <path id="Path_1502" d="M1.6 34.1l3.654 3.654.729.729a18.984 18.984 0 0 0-5.986 8 18.934 18.934 0 0 0 24.662 10.662l.681.681 4.672 4.68 2.044-2.036-28.41-28.417zm8.864 8.856l2.476 2.476a5.079 5.079 0 0 0-.12 1.05 4.812 4.812 0 0 0 4.808 4.808 4.941 4.941 0 0 0 1.042-.12l2.476 2.476a7.884 7.884 0 0 1-3.518.85 7.962 7.962 0 0 1-7.165-11.54z" class="cls-1" data-name="Path 1502" transform="translate(0 -32.053)"/>
            </g>
        </g>
    </g>
</svg>
