<?xml version="1.0" encoding="UTF-8"?>
<svg width="12px" height="10px" viewBox="0 0 12 10" version="1.1" xmlns="http://www.w3.org/2000/svg" xmlns:xlink="http://www.w3.org/1999/xlink">
    <!-- Generator: Sketch 58 (84663) - https://sketch.com -->
    <title>logout</title>
    <desc>Created with Sketch.</desc>
    <g id="BN" stroke="none" stroke-width="1" fill="none" fill-rule="evenodd" opacity="0.693568638">
        <g id="Desktop-Account-Dropdown" transform="translate(-1134.000000, -93.000000)" fill="#000000" fill-rule="nonzero">
            <g id="Group-4" transform="translate(926.000000, 0.000000)">
                <g id="Group-2" transform="translate(132.000000, 89.000000)">
                    <g id="logout" transform="translate(76.000000, 4.000000)">
                        <path d="M1.92047401,5.49996458 L8.43749297,5.49996458 C8.74814685,5.49996458 9,5.27610258 9,4.999975 C9,4.72384742 8.74814685,4.49998542 8.43749297,4.49998542 L1.92047401,4.49998542 L2.6477581,3.85353222 C2.86743584,3.65826962 2.86743584,3.34170955 2.6477581,3.14644695 C2.42811785,2.95118435 2.0719384,2.95118435 1.85226065,3.14644695 L0.16481456,4.64638237 C0.151651896,4.65808212 0.13920174,4.67034853 0.127426593,4.68314827 C0.122289029,4.68871482 0.117826473,4.6946147 0.112988912,4.70031458 C0.106801335,4.70764776 0.100426255,4.71481427 0.0946886836,4.72244745 C0.089438618,4.72941397 0.0849010613,4.73664715 0.0801010013,4.74378034 C0.0754884436,4.75064686 0.0706508831,4.75734672 0.0664133302,4.76441324 C0.0619882749,4.77174642 0.0582757284,4.7792796 0.0543006788,4.78674611 C0.05040063,4.79404596 0.0463130789,4.80124581 0.0428255353,4.80871232 C0.0394504931,4.81601217 0.0366754584,4.82344534 0.0337129214,4.83084519 C0.0304503806,4.83884502 0.0270003375,4.84674486 0.0242253028,4.85491136 C0.0217127714,4.8623112 0.0198752484,4.86981105 0.0177752222,4.87731089 C0.0154126927,4.88561072 0.0127876598,4.89387721 0.0109126364,4.9023437 C0.0090001125,4.91097685 0.00783759797,4.91971001 0.00645008063,4.92840982 C0.00525006563,4.935843 0.00363754547,4.94317618 0.00281253516,4.95070936 C0.00101251266,4.96684236 0,4.98307535 0,4.99927502 C0,4.99950834 0,4.999775 0,5 C0,5.00024166 0,5.00050832 0,5.00074165 C0,5.01697465 0.00101251266,5.03317431 0.00281253516,5.04934064 C0.00363754547,5.05677382 0.00521256516,5.064007 0.00637507969,5.07137351 C0.0078000975,5.08017333 0.00896261203,5.08897315 0.0109126364,5.0977063 C0.0127876598,5.10610612 0.0153751922,5.11423929 0.0177377217,5.12247245 C0.0198752484,5.13003896 0.0217502719,5.13767213 0.0243003038,5.14517198 C0.027037838,5.15320514 0.0304503806,5.16097165 0.03360042,5.16883815 C0.036637958,5.17637133 0.0394129927,5.18393783 0.0428630358,5.19133768 C0.0462755784,5.19867086 0.0502881286,5.20570405 0.0541131764,5.21287057 C0.058163227,5.22050374 0.0619882749,5.22820358 0.0664883311,5.23570342 C0.0706133827,5.24253661 0.0753009413,5.24903648 0.079763497,5.25566967 C0.0846760585,5.26303619 0.089363617,5.27046937 0.0947636845,5.27763588 C0.100238753,5.28493573 0.106351329,5.29176892 0.112238903,5.29880211 C0.117338967,5.30483532 0.122064026,5.31106852 0.127501594,5.31693506 C0.138714234,5.32906814 0.150601883,5.34070124 0.163014538,5.35186767 C0.163614545,5.35240099 0.164102051,5.35300098 0.164702059,5.3535343 L1.85222315,6.85353638 C1.96209953,6.95116768 2.10602633,7 2.24999062,7 C2.39391742,7 2.53791922,6.95116768 2.6477206,6.85356972 C2.86739834,6.65830712 2.86739834,6.34174705 2.6477581,6.14648445 L1.92047401,5.49996458 Z" id="XMLID_7_"></path>
                        <path d="M11.4545455,0 L4.54545455,0 C4.24421818,0 4,0.248739819 4,0.555553498 L4,2.77776749 C4,3.08458117 4.24421818,3.33332099 4.54545455,3.33332099 C4.84669091,3.33332099 5.09090909,3.08458117 5.09090909,2.77776749 L5.09090909,1.111107 L10.9090909,1.111107 L10.9090909,8.888893 L5.09090909,8.888893 L5.09090909,7.22219547 C5.09090909,6.91538179 4.84669091,6.66664198 4.54545455,6.66664198 C4.24421818,6.66664198 4,6.91538179 4,7.22219547 L4,9.4444465 C4,9.75126018 4.24421818,10 4.54545455,10 L11.4545455,10 C11.7557818,10 12,9.75126018 12,9.4444465 L12,0.555553498 C12,0.248739819 11.7557818,0 11.4545455,0 Z" id="XMLID_8_"></path>
                    </g>
                </g>
            </g>
        </g>
    </g>
</svg>