<svg xmlns="http://www.w3.org/2000/svg" width="219.9" height="51.524" viewBox="0 0 219.9 51.524">
    <defs>
        <style>
            .cls-1{fill:#7fdfda}.cls-2{fill:#63aed8}.cls-3{fill:#2132d7}
        </style>
    </defs>
    <g id="Group_4008" data-name="Group 4008" transform="translate(-592.199 -9.001)">
        <g id="Group_334" data-name="Group 334" transform="translate(514.6 -37.699)">
            <g id="Group_333" data-name="Group 333" transform="translate(77.6 46.7)">
                <path id="Path_272" d="M122.732 64.538h-10.259v-9.914a8.2 8.2 0 0 0-16.384 0v9.914h-10.3a7.928 7.928 0 1 0 0 15.848h10.262V90.3a8.2 8.2 0 0 0 16.384 0v-9.914h10.259a7.928 7.928 0 1 0 .038-15.848z" class="cls-1" data-name="Path 272" transform="translate(-77.6 -46.7)"/>
            </g>
            <path id="Path_273" d="M128.244 66.567a8.314 8.314 0 0 0-5.474-2.029h-10.259v-9.914a8.2 8.2 0 0 0-16.384 0v9.914H85.792a7.928 7.928 0 1 0 0 15.848h10.259v7.771c.651.038 1.3.038 1.952.038a34.736 34.736 0 0 0 14.431-2.948V80.31h7.466a29.649 29.649 0 0 0 8.268-13.666c.038 0 .038-.039.076-.077z" class="cls-2" data-name="Path 273"/>
            <path id="Path_274" d="M100.393 73.649a35.541 35.541 0 0 0 23.925-9.111h-9.647v-9.914a8.2 8.2 0 0 0-16.384 0v9.914H87.952A8.3 8.3 0 0 0 81.1 68.1a35.886 35.886 0 0 0 19.293 5.549z" class="cls-3" data-name="Path 274" transform="translate(-2.16)"/>
        </g>
        <g id="Group_335" data-name="Group 335" transform="translate(24230 19659.5)">
            <g id="Group_331" data-name="Group 331" transform="translate(-23574.43 -19643.5)">
                <path id="Path_247" d="M57.181 208.617A2.1 2.1 0 0 1 59.3 206.5h6.76a6.562 6.562 0 0 1 4.968 1.71 4.358 4.358 0 0 1 1.3 3.258v.081A4.57 4.57 0 0 1 69.8 215.7c2.2.814 3.583 2.117 3.583 4.724v.081c0 3.5-2.85 5.212-7.167 5.212h-7A2.1 2.1 0 0 1 57.1 223.6v-14.983zm7.981 5.619c1.873 0 3.013-.57 3.013-2.036v-.081c0-1.222-.977-1.955-2.769-1.955h-4.152v4.072zm1.059 7.655c1.873 0 2.932-.652 2.932-2.036v-.081c0-1.3-.977-2.036-3.095-2.036h-4.886v4.235h5.049z" data-name="Path 247" transform="translate(-57.1 -206.256)"/>
                <path id="Path_248" d="M87.555 226.93a7.335 7.335 0 0 1-7.655-7.574v-.081a7.239 7.239 0 0 1 7.248-7.574 6.861 6.861 0 0 1 7 7 1.838 1.838 0 0 1-1.955 1.955h-8.139a3.384 3.384 0 0 0 3.583 2.85 4.548 4.548 0 0 0 2.932-.977 1.422 1.422 0 0 1 .977-.326 1.634 1.634 0 0 1 1.629 1.629 1.471 1.471 0 0 1-.57 1.222 7.237 7.237 0 0 1-5.05 1.876zm2.688-8.8c-.244-1.873-1.3-3.095-3.095-3.095-1.71 0-2.85 1.222-3.176 3.095z" data-name="Path 248" transform="translate(-61.331 -207.221)"/>
                <path id="Path_249" d="M101.755 221.634v-6.923h-.163a1.792 1.792 0 1 1 0-3.583h.163v-1.792a2.036 2.036 0 0 1 4.072 0v1.792h1.792a1.792 1.792 0 1 1 0 3.583h-1.792v6.271c0 .977.407 1.384 1.3 1.384h.489a1.69 1.69 0 0 1 .652 3.258 5.55 5.55 0 0 1-2.362.407c-2.441.001-4.151-1.058-4.151-4.397z" data-name="Path 249" transform="translate(-65.025 -206.404)"/>
                <path id="Path_250" d="M115.555 221.634v-6.923h-.163a1.792 1.792 0 1 1 0-3.583h.163v-1.792a2.036 2.036 0 0 1 4.072 0v1.792h1.792a1.792 1.792 0 1 1 0 3.583h-1.792v6.271c0 .977.407 1.384 1.3 1.384h.489a1.69 1.69 0 0 1 .652 3.258 5.55 5.55 0 0 1-2.362.407c-2.441.001-4.151-1.058-4.151-4.397z" data-name="Path 250" transform="translate(-67.586 -206.404)"/>
                <path id="Path_251" d="M135.355 226.93a7.335 7.335 0 0 1-7.655-7.574v-.081a7.239 7.239 0 0 1 7.248-7.574 6.861 6.861 0 0 1 7 7 1.838 1.838 0 0 1-1.948 1.958h-8.226a3.384 3.384 0 0 0 3.583 2.85 4.548 4.548 0 0 0 2.932-.977 1.422 1.422 0 0 1 .977-.326 1.634 1.634 0 0 1 1.629 1.629 1.471 1.471 0 0 1-.57 1.222 7.03 7.03 0 0 1-4.97 1.873zm2.688-8.8c-.244-1.873-1.3-3.095-3.095-3.095-1.71 0-2.85 1.222-3.176 3.095z" data-name="Path 251" transform="translate(-70.202 -207.221)"/>
                <path id="Path_252" d="M149.1 213.936a2.036 2.036 0 1 1 4.072 0v.652c.57-1.385 1.547-2.688 2.769-2.688a1.883 1.883 0 0 1 2.036 2.036 2.023 2.023 0 0 1-1.547 1.955c-2.117.489-3.258 2.117-3.258 5.049v3.909a2.036 2.036 0 1 1-4.072 0z" data-name="Path 252" transform="translate(-74.174 -207.258)"/>
                <path id="Path_253" d="M163.581 208.5a2.1 2.1 0 0 1 2.117-2.117h.407a2.673 2.673 0 0 1 2.2 1.222l8.063 10.587v-9.854a2.036 2.036 0 1 1 4.072 0v15.148a2.1 2.1 0 0 1-2.117 2.117h-.163a2.673 2.673 0 0 1-2.2-1.222l-8.388-10.995v10.18a2.036 2.036 0 0 1-4.072 0V208.5z" data-name="Path 253" transform="translate(-76.846 -206.219)"/>
                <path id="Path_254" d="M188.6 219.355a7.905 7.905 0 0 1 15.8-.081v.081a7.907 7.907 0 0 1-15.8 0zm11.728 0a3.881 3.881 0 0 0-3.828-4.072 3.7 3.7 0 0 0-3.746 3.991v.081a3.929 3.929 0 0 0 3.828 4.072 3.858 3.858 0 0 0 3.746-4.072z" data-name="Path 254" transform="translate(-81.505 -207.221)"/>
                <path id="Path_255" d="M213.746 225.012l-3.583-10.262a3.5 3.5 0 0 1-.163-.977 1.863 1.863 0 0 1 1.955-1.873 2.085 2.085 0 0 1 2.036 1.629l2.2 7.411 2.28-7.411a2.177 2.177 0 0 1 2.117-1.629h.244a2.177 2.177 0 0 1 2.117 1.629l2.28 7.411 2.28-7.493a1.941 1.941 0 0 1 1.955-1.547 1.913 1.913 0 0 1 1.955 1.873 2.41 2.41 0 0 1-.163.814l-3.665 10.424a2.361 2.361 0 0 1-2.28 1.873h-.163a2.221 2.221 0 0 1-2.2-1.792l-2.28-7.33-2.362 7.33a2.284 2.284 0 0 1-2.2 1.792h-.163a2.28 2.28 0 0 1-2.197-1.872z" data-name="Path 255" transform="translate(-85.476 -207.258)"/>
                <path id="Path_256" d="M237.7 211.005a4.8 4.8 0 0 1 4.724-4.805 4.676 4.676 0 0 1 4.724 4.724 4.8 4.8 0 0 1-4.724 4.805 4.727 4.727 0 0 1-4.724-4.724zm8.959 0a4.156 4.156 0 0 0-4.235-4.235 4.258 4.258 0 0 0-4.235 4.235 4.235 4.235 0 1 0 8.47 0zm-6.271-1.873a.73.73 0 0 1 .733-.733h1.71c1.222 0 2.117.57 2.117 1.71a1.463 1.463 0 0 1-.9 1.466l.652.733a.6.6 0 0 1 .163.489.665.665 0 0 1-.733.652.739.739 0 0 1-.57-.244l-1.059-1.3h-.652v.9a.733.733 0 0 1-1.466 0v-3.665zm2.28 1.629c.489 0 .733-.244.733-.57 0-.407-.244-.57-.733-.57h-.9v1.222h.9z" data-name="Path 256" transform="translate(-90.617 -206.2)"/>
            </g>
            <g id="Group_332" data-name="Group 332" transform="translate(-23575 -19614.75)">
                <path id="Path_257" d="M56.4 245.872a3.9 3.9 0 0 1 3.909-4.072 4.3 4.3 0 0 1 3.095 1.222l-.407.407a3.593 3.593 0 0 0-2.688-1.14 3.392 3.392 0 0 0-3.339 3.5 3.392 3.392 0 0 0 3.339 3.5A3.48 3.48 0 0 0 63 248.071l.407.407a4.1 4.1 0 0 1-3.095 1.385 3.785 3.785 0 0 1-3.912-3.991z" data-name="Path 257" transform="translate(-56.4 -241.556)"/>
                <path id="Path_258" d="M70.4 247.413a2.933 2.933 0 1 1 5.864 0 2.933 2.933 0 1 1-5.864 0zm5.294 0a2.454 2.454 0 0 0-2.362-2.525 2.381 2.381 0 0 0-2.362 2.443 2.382 2.382 0 0 0 2.362 2.443 2.223 2.223 0 0 0 2.362-2.361z" data-name="Path 258" transform="translate(-58.998 -242.038)"/>
                <path id="Path_259" d="M83.9 244.563h.57v1.059a2.361 2.361 0 0 1 2.036-1.222 2.16 2.16 0 0 1 2.28 2.362v3.5h-.57v-3.421a1.756 1.756 0 0 0-1.792-1.955 1.9 1.9 0 0 0-1.955 2.036v3.339H83.9v-5.7z" data-name="Path 259" transform="translate(-61.504 -242.038)"/>
                <path id="Path_260" d="M95.9 249.568l.326-.407a3.291 3.291 0 0 0 2.036.733c.814 0 1.384-.407 1.384-1.059 0-.652-.733-.9-1.547-1.14-.9-.244-1.955-.57-1.955-1.547a1.692 1.692 0 0 1 1.873-1.547 3.768 3.768 0 0 1 2.036.652l-.326.489a3.341 3.341 0 0 0-1.792-.57c-.814 0-1.3.407-1.3.977 0 .652.814.9 1.629 1.14.9.244 1.873.57 1.873 1.629a1.784 1.784 0 0 1-1.955 1.71 6.546 6.546 0 0 1-2.282-1.06z" data-name="Path 260" transform="translate(-63.731 -242.075)"/>
                <path id="Path_261" d="M107.4 248.1v-3.5h.57v3.421a1.756 1.756 0 0 0 1.792 1.955 1.9 1.9 0 0 0 1.955-2.036v-3.34h.57v5.7h-.57v-1.059a2.361 2.361 0 0 1-2.036 1.222 2.16 2.16 0 0 1-2.281-2.363z" data-name="Path 261" transform="translate(-65.865 -242.075)"/>
                <path id="Path_262" d="M120.2 241.5h.57v8.226h-.57z" data-name="Path 262" transform="translate(-68.24 -241.5)"/>
                <path id="Path_263" d="M127.914 248.427v-3.747h-.814v-.489h.814V242.4h.57v1.792h2.036v.489h-2.036v3.665a1.029 1.029 0 0 0 1.14 1.14 3.585 3.585 0 0 0 .814-.163v.489a1.754 1.754 0 0 1-.9.163 1.474 1.474 0 0 1-1.624-1.548z" data-name="Path 263" transform="translate(-69.521 -241.667)"/>
                <path id="Path_264" d="M136.8 248.654c0-1.222 1.059-1.873 2.525-1.873a5.8 5.8 0 0 1 1.873.244v-.244a1.691 1.691 0 0 0-1.873-1.792 3.1 3.1 0 0 0-1.792.489l-.163-.489a4.182 4.182 0 0 1 2.036-.489 2.4 2.4 0 0 1 1.792.652 2.1 2.1 0 0 1 .57 1.629v3.583h-.57v-.977a2.618 2.618 0 0 1-2.2 1.059 2.017 2.017 0 0 1-2.198-1.792zm4.4-.489v-.652a6.356 6.356 0 0 0-1.955-.244c-1.222 0-1.873.57-1.873 1.3a1.48 1.48 0 0 0 1.629 1.3c1.22.006 2.199-.645 2.199-1.704z" data-name="Path 264" transform="translate(-71.321 -242.057)"/>
                <path id="Path_265" d="M148.9 249.568l.326-.407a3.291 3.291 0 0 0 2.036.733c.814 0 1.384-.407 1.384-1.059 0-.652-.733-.9-1.547-1.14-.9-.244-1.955-.57-1.955-1.547a1.692 1.692 0 0 1 1.873-1.547 3.768 3.768 0 0 1 2.036.652l-.326.489a3.341 3.341 0 0 0-1.792-.57c-.814 0-1.3.407-1.3.977 0 .652.814.9 1.629 1.14.9.244 1.873.57 1.873 1.629a1.784 1.784 0 0 1-1.955 1.71 6.546 6.546 0 0 1-2.282-1.06z" data-name="Path 265" transform="translate(-73.567 -242.075)"/>
                <path id="Path_266" d="M168.5 245.872a3.952 3.952 0 1 1 7.9 0 3.961 3.961 0 0 1-3.991 4.072 3.894 3.894 0 0 1-3.909-4.072zm7.33 0a3.412 3.412 0 0 0-3.339-3.583 3.342 3.342 0 0 0-3.339 3.5 3.342 3.342 0 0 0 3.339 3.5 3.229 3.229 0 0 0 3.339-3.417z" data-name="Path 266" transform="translate(-77.204 -241.556)"/>
                <path id="Path_267" d="M184.7 244.563h.57v1.059a2.361 2.361 0 0 1 2.036-1.222 2.16 2.16 0 0 1 2.28 2.362v3.5h-.57v-3.421a1.756 1.756 0 0 0-1.792-1.955 1.9 1.9 0 0 0-1.955 2.036v3.339h-.57v-5.7z" data-name="Path 267" transform="translate(-80.211 -242.038)"/>
                <path id="Path_268" d="M197.4 241.5h.57v8.226h-.57z" data-name="Path 268" transform="translate(-82.568 -241.5)"/>
                <path id="Path_269" d="M204.9 241.8h.652v.733h-.652zm.081 2.28h.57v5.7h-.57z" data-name="Path 269" transform="translate(-83.96 -241.556)"/>
                <path id="Path_270" d="M212.5 244.563h.57v1.059a2.361 2.361 0 0 1 2.036-1.222 2.16 2.16 0 0 1 2.28 2.362v3.5h-.57v-3.421a1.756 1.756 0 0 0-1.792-1.955 1.9 1.9 0 0 0-1.955 2.036v3.339h-.57v-5.7z" data-name="Path 270" transform="translate(-85.37 -242.038)"/>
                <path id="Path_271" d="M224.6 247.413a2.8 2.8 0 0 1 2.688-3.013c1.629 0 2.606 1.3 2.606 3.013v.244h-4.724a2.27 2.27 0 0 0 2.28 2.28 2.618 2.618 0 0 0 1.955-.9l.407.326a2.953 2.953 0 0 1-2.362 1.059 2.873 2.873 0 0 1-2.85-3.009zm4.805-.244a2.1 2.1 0 0 0-2.036-2.2 2.229 2.229 0 0 0-2.117 2.2z" data-name="Path 271" transform="translate(-87.616 -242.038)"/>
            </g>
        </g>
    </g>
</svg>
