<?xml version="1.0" encoding="UTF-8"?>
<svg width="16px" height="18px" viewBox="0 0 16 18" version="1.1" xmlns="http://www.w3.org/2000/svg" xmlns:xlink="http://www.w3.org/1999/xlink">
    <!-- Generator: Sketch 58 (84663) - https://sketch.com -->
    <title>medical-prescription</title>
    <desc>Created with Sketch.</desc>
    <g id="Symbols" stroke="none" stroke-width="1" fill="none" fill-rule="evenodd" opacity="0.600725446">
        <g id="Client-info-1" transform="translate(-426.000000, -127.000000)" fill="#000000" fill-rule="nonzero">
            <g id="Group">
                <g transform="translate(426.000000, 127.000000)">
                    <g id="medical-prescription">
                        <path d="M9.6446987,4.14992906 C9.89717773,4.14992906 10.106331,4.36239239 10.106331,4.62405446 L10.106331,5.03989345 L10.5102975,5.03989345 C10.7646072,5.03989345 10.9719298,5.25204342 10.9719298,5.51401885 C10.9719298,5.77568092 10.7646072,5.98814425 10.5102975,5.98814425 L10.106331,5.98814425 L10.106331,6.40335652 C10.106331,6.66501858 9.89717773,6.87748192 9.6446987,6.87748192 C9.38855835,6.87748192 9.18306636,6.66501858 9.18306636,6.40335652 L9.18306636,5.98814425 L8.77833715,5.98814425 C8.52311213,5.98814425 8.31670481,5.77568092 8.31670481,5.51401885 C8.31670481,5.25188673 8.52326468,5.03989345 8.77833715,5.03989345 L9.18306636,5.03989345 L9.18306636,4.62405446 C9.18291381,4.36145229 9.38855835,4.14992906 9.6446987,4.14992906 Z M12.9845919,2.03657698 L12.9845919,17.5258746 C12.9845919,17.7870666 12.7754386,18 12.5229596,18 L0.461632342,18 C0.20778032,18 0,17.7870666 0,17.5258746 L0,2.03657698 C0,1.77444486 0.20778032,1.56245158 0.461632342,1.56245158 L3.49138063,1.56245158 L3.49138063,0.474125399 C3.49138063,0.212463332 3.69885584,0 3.95301297,0 L9.03142639,0 C9.28390542,0 9.49321129,0.212463332 9.49321129,0.474125399 L9.49321129,1.56135479 L12.522807,1.56135479 C12.7772693,1.5622949 12.9845919,1.77350476 12.9845919,2.03657698 Z M4.41464531,2.84600587 L8.56979405,2.84600587 L8.56979405,0.949347586 L4.41464531,0.949347586 L4.41464531,2.84600587 Z M12.0611747,2.51070238 L9.49321129,2.51070238 L9.49321129,3.32013127 C9.49321129,3.58226339 9.28390542,3.79425667 9.03142639,3.79425667 L3.95301297,3.79425667 C3.69870328,3.79425667 3.49138063,3.5821067 3.49138063,3.32013127 L3.49138063,2.51070238 L0.923264683,2.51070238 L0.923264683,17.0517492 L12.0611747,17.0517492 L12.0611747,2.51070238 Z M10.6184592,7.9434023 L2.3655225,7.9434023 C2.10983982,7.9434023 1.90389016,8.15586563 1.90389016,8.4175277 C1.90389016,8.67965982 2.10999237,8.8916531 2.3655225,8.8916531 L10.6184592,8.8916531 C10.8727689,8.8916531 11.0800916,8.67950314 11.0800916,8.4175277 C11.0802441,8.15586563 10.8727689,7.9434023 10.6184592,7.9434023 Z M10.6184592,10.1372899 L2.3655225,10.1372899 C2.10983982,10.1372899 1.90389016,10.3484998 1.90389016,10.611572 C1.90389016,10.8726073 2.10999237,11.0855407 2.3655225,11.0855407 L10.6184592,11.0855407 C10.8727689,11.0855407 11.0800916,10.8726073 11.0800916,10.611572 C11.0802441,10.3483431 10.8727689,10.1372899 10.6184592,10.1372899 Z M10.6184592,12.3303941 L2.3655225,12.3303941 C2.10983982,12.3303941 1.90389016,12.5433274 1.90389016,12.8045195 C1.90389016,13.0657115 2.10999237,13.2786449 2.3655225,13.2786449 L10.6184592,13.2786449 C10.8727689,13.2786449 11.0800916,13.0657115 11.0800916,12.8045195 C11.0802441,12.5414472 10.8727689,12.3303941 10.6184592,12.3303941 Z M10.6184592,14.5234982 L2.3655225,14.5234982 C2.10983982,14.5234982 1.90389016,14.7347081 1.90389016,14.9976236 C1.90389016,15.2588156 2.10999237,15.471749 2.3655225,15.471749 L10.6184592,15.471749 C10.8727689,15.471749 11.0800916,15.2588156 11.0800916,14.9976236 C11.0802441,14.7347081 10.8727689,14.5234982 10.6184592,14.5234982 Z M15.0405797,7.22563348 C14.5102975,7.22563348 14.0811594,7.66732532 14.0811594,8.21101836 L14.0811594,15.8219375 C14.0811594,16.190458 14.286804,16.4997519 14.5789474,16.6683438 L14.5789474,17.5258746 C14.5789474,17.7870666 14.7845919,18 15.0405797,18 C15.2948894,18 15.5022121,17.7870666 15.5022121,17.5258746 L15.5022121,16.6683438 C15.7943555,16.4997519 16,16.1903013 16,15.8219375 L16,8.21101836 C16,7.66732532 15.5690313,7.22563348 15.0405797,7.22563348 Z" id="Shape"></path>
                    </g>
                </g>
            </g>
        </g>
    </g>
</svg>