<?xml version="1.0" encoding="UTF-8"?>
<svg width="17px" height="19px" viewBox="0 0 17 19" version="1.1" xmlns="http://www.w3.org/2000/svg" xmlns:xlink="http://www.w3.org/1999/xlink">
    <!-- Generator: Sketch 58 (84663) - https://sketch.com -->
    <title>paper-clip-outline icon</title>
    <desc>Created with Sketch.</desc>
    <g id="BN" stroke="none" stroke-width="1" fill="none" fill-rule="evenodd">
        <g id="Desktop-Main" transform="translate(-348.000000, -568.000000)" fill="#617DFF">
            <g id="Group-13" transform="translate(29.000000, 289.000000)">
                <g id="Group-12">
                    <g id="Group-7" transform="translate(291.000000, 84.000000)">
                        <g id="Group-2" transform="translate(28.000000, 195.000000)">
                            <g id="paper-clip-outline-icon">
                                <g id="011-paper-clip-outline">
                                    <path d="M15.7854591,12.6589579 L8.73055735,5.43450076 C8.23665171,4.91222147 7.63361303,4.65112537 6.92127121,4.65112537 C6.25745658,4.65112537 5.69499192,4.8873531 5.23349445,5.35989566 C4.77186939,5.83235111 4.54122698,6.40854817 4.54122698,7.08835618 C4.54122698,7.81785736 4.79623931,8.43547267 5.30622145,8.94111498 L10.2848312,14.0392613 C10.365724,14.1221413 10.4549953,14.1635596 10.5520497,14.1635596 C10.6815973,14.1635596 10.8718359,14.0349496 11.1225952,13.7781216 C11.373482,13.5212065 11.4988192,13.3262228 11.4988192,13.1935625 C11.4988192,13.0943068 11.4585429,13.0030647 11.377565,12.9200976 L6.39912537,7.82195128 C6.19676569,7.59809241 6.09558584,7.35358974 6.09558584,7.08835618 C6.09558584,6.84781677 6.17243829,6.64891337 6.32627078,6.49142822 C6.48001821,6.33389951 6.67442471,6.25520049 6.90919257,6.25520049 C7.18440685,6.25520049 7.42721296,6.35454331 7.63778101,6.55349026 L14.6925126,13.7779474 C15.2027925,14.3000525 15.4578048,14.9009873 15.4578048,15.5806646 C15.4578048,16.1115237 15.2876407,16.5507488 14.9477802,16.8988188 C14.6075369,17.246976 14.1787453,17.4213594 13.6604272,17.4213594 C12.9966126,17.4213594 12.409778,17.1599149 11.900051,16.6376792 L2.4770561,6.97612187 C1.8618112,6.34613771 1.55435887,5.59586207 1.55435887,4.72542561 C1.55435887,3.84667066 1.84973256,3.09639501 2.44073513,2.47472935 C3.03165263,1.85315078 3.75611562,1.54223084 4.61429422,1.54223084 C5.43989452,1.54223084 6.17243829,1.86138217 6.81196806,2.49946706 L14.1704944,10.0471694 C14.2513872,10.1301801 14.3444438,10.1713371 14.4497916,10.1713371 C14.5793392,10.1713371 14.7676639,10.0449483 15.0143403,9.79217067 C15.2613569,9.53939306 15.3844824,9.34667409 15.3844824,9.21405731 C15.3844824,9.11471449 15.3441636,9.02342885 15.2633558,8.9405488 L7.91695062,1.40517172 C6.98604502,0.468448644 5.88114752,0 4.60208799,0 C3.31494769,0 2.22621174,0.460173705 1.33575256,1.38030335 C0.445208324,2.30047655 0,3.41964026 0,4.73762026 C0,6.03077544 0.45728696,7.15403306 1.372031,8.10734957 L10.807062,17.7566687 C11.6165433,18.5853385 12.5675658,19 13.6604697,19 C14.6075794,19 15.4010693,18.6724431 16.0404289,18.0175034 C16.6799587,17.3629122 17,16.5503132 17,15.5801855 C16.9997448,14.4446462 16.5948128,13.4708165 15.7854591,12.6589579 Z" id="Path" fill-rule="nonzero"></path>
                                </g>
                            </g>
                        </g>
                    </g>
                </g>
            </g>
        </g>
    </g>
</svg>