<?xml version="1.0" encoding="UTF-8"?>
<svg width="92px" height="94px" viewBox="0 0 92 94" version="1.1" xmlns="http://www.w3.org/2000/svg" xmlns:xlink="http://www.w3.org/1999/xlink">
    <!-- Generator: Sketch 58 (84663) - https://sketch.com -->
    <title>start call bttn</title>
    <desc>Created with Sketch.</desc>
    <defs>
        <circle id="path-1" cx="27" cy="27" r="27"></circle>
        <filter x="-46.3%" y="-46.3%" width="229.6%" height="229.6%" filterUnits="objectBoundingBox" id="filter-2">
            <feOffset dx="10" dy="10" in="SourceAlpha" result="shadowOffsetOuter1"></feOffset>
            <feGaussianBlur stdDeviation="10" in="shadowOffsetOuter1" result="shadowBlurOuter1"></feGaussianBlur>
            <feColorMatrix values="0 0 0 0 0.627858922   0 0 0 0 0.627858922   0 0 0 0 0.627858922  0 0 0 0.111177885 0" type="matrix" in="shadowBlurOuter1"></feColorMatrix>
        </filter>
    </defs>
    <g id="BN" stroke="none" stroke-width="1" fill="none" fill-rule="evenodd">
        <g id="Desktop-Call-pop-up-1" transform="translate(-611.000000, -363.000000)">
            <g id="Group-4" transform="translate(424.000000, 200.000000)">
                <g id="start-call-bttn" transform="translate(196.000000, 173.000000)">
                    <g id="Group-3">
                        <g id="Oval">
                            <use fill="black" fill-opacity="1" filter="url(#filter-2)" xlink:href="#path-1"></use>
                            <use fill="#2FF06D" fill-rule="evenodd" xlink:href="#path-1"></use>
                        </g>
                        <g id="003-telephone" transform="translate(12.000000, 12.000000)" fill="#FFFFFF" fill-rule="nonzero">
                            <path d="M25.2305931,18.7671457 C24.1463665,17.6967599 22.7928097,17.6967599 21.715489,18.7671457 C20.8936866,19.58202 20.0718843,20.3968944 19.2638938,21.2255802 C19.0429049,21.4534688 18.8564455,21.5018088 18.5871154,21.3498831 C18.0553609,21.059843 17.4890769,20.8250487 16.9780402,20.5073858 C14.595504,19.0088457 12.5996983,17.0821512 10.8317874,14.9137567 C9.95473781,13.8364652 9.17437088,12.6832108 8.62880461,11.3849364 C8.51831018,11.1225192 8.53902789,10.9498764 8.75311085,10.7357992 C9.57491319,9.94164198 10.3759978,9.12676762 11.1839884,8.31189326 C12.3096504,7.17935601 12.3096504,5.85345874 11.1770825,4.71401577 C10.5348336,4.06487857 9.89258469,3.42955279 9.2503358,2.78041559 C8.5873692,2.11746695 7.93130851,1.4476126 7.26143601,0.791569684 C6.17720939,-0.265004702 4.82365259,-0.265004702 3.74633187,0.798475399 C2.91762362,1.61334976 2.12344489,2.44894127 1.28092484,3.2500042 C0.500557906,3.9889157 0.106921489,4.89356436 0.0240506647,5.95013875 C-0.107161474,7.66966177 0.314098551,9.29250478 0.908006127,10.8739135 C2.12344489,14.1472224 3.97422664,17.0545284 6.2186448,19.7201343 C9.2503358,23.3249175 12.8690285,26.1769778 17.1023464,28.2348809 C19.0083754,29.1602467 20.9834634,29.8715353 23.1311989,29.9889325 C24.6090619,30.071801 25.8935597,29.6988924 26.9225391,28.545638 C27.6269411,27.7583865 28.4211199,27.0401922 29.1669573,26.2874693 C30.2719016,25.1687434 30.2788075,23.8152233 29.1807691,22.7103089 C27.8686477,21.3913174 26.5496204,20.0792315 25.2305931,18.7671457 Z" id="Path"></path>
                        </g>
                    </g>
                </g>
            </g>
        </g>
    </g>
</svg>