<svg xmlns="http://www.w3.org/2000/svg" xmlns:xlink="http://www.w3.org/1999/xlink" width="40" height="40" viewBox="0 0 40 40"><defs><filter id="a" x="4" y="4" width="32" height="32" filterUnits="userSpaceOnUse"><feOffset dx="2" dy="2" input="SourceAlpha"/><feGaussianBlur stdDeviation="2" result="b"/><feFlood flood-opacity="0.161"/><feComposite operator="in" in2="b"/><feComposite in="SourceGraphic"/></filter><filter id="c" x="0" y="0" width="40" height="40" filterUnits="userSpaceOnUse"><feOffset dx="2" dy="2" input="SourceAlpha"/><feGaussianBlur stdDeviation="2" result="d"/><feFlood flood-opacity="0.161"/><feComposite operator="in" in2="d"/><feComposite in="SourceGraphic"/></filter></defs><g transform="translate(4 4)"><g transform="translate(4 4)"><g transform="matrix(1, 0, 0, 1, -8, -8)" filter="url(#a)"><path d="M10,0A10,10,0,1,1,0,10,10,10,0,0,1,10,0Z" transform="translate(8 8)" fill="#ff6629"/></g><g transform="translate(5 5)"><path d="M6.189,5,9.754,1.434A.84.84,0,0,0,8.566.246L5,3.811,1.435.246A.84.84,0,0,0,.246,1.434L3.812,5,.246,8.565A.84.84,0,0,0,1.435,9.753L5,6.188,8.566,9.753A.84.84,0,0,0,9.754,8.565Z" transform="translate(0 0)" fill="#fff" fill-rule="evenodd"/></g></g><g transform="matrix(1, 0, 0, 1, -4, -4)" filter="url(#c)"><g transform="translate(4 4)" fill="none" stroke="#ff6629" stroke-width="2"><circle cx="14" cy="14" r="14" stroke="none"/><circle cx="14" cy="14" r="13" fill="none"/></g></g></g></svg>