<svg xmlns="http://www.w3.org/2000/svg" xmlns:xlink="http://www.w3.org/1999/xlink" width="40" height="40" viewBox="0 0 40 40"><defs><filter id="a" x="4" y="4" width="32" height="32" filterUnits="userSpaceOnUse"><feOffset dx="2" dy="2" input="SourceAlpha"/><feGaussianBlur stdDeviation="2" result="b"/><feFlood flood-opacity="0.161"/><feComposite operator="in" in2="b"/><feComposite in="SourceGraphic"/></filter><filter id="c" x="0" y="0" width="40" height="40" filterUnits="userSpaceOnUse"><feOffset dx="2" dy="2" input="SourceAlpha"/><feGaussianBlur stdDeviation="2" result="d"/><feFlood flood-opacity="0.161"/><feComposite operator="in" in2="d"/><feComposite in="SourceGraphic"/></filter></defs><g transform="translate(4 4)"><g transform="translate(4 4)"><g transform="matrix(1, 0, 0, 1, -8, -8)" filter="url(#a)"><path d="M10,0A10,10,0,1,1,0,10,10,10,0,0,1,10,0Z" transform="translate(8 8)" fill="#1d45c7"/></g><g transform="translate(3.939 3.939)"><path d="M2.821,4.635H1.892A4.1,4.1,0,0,1,6.017.913,4.151,4.151,0,0,1,9.9,3.538a.474.474,0,0,0,.6.27.453.453,0,0,0,.278-.587A4.941,4.941,0,0,0,8.95.906a5.191,5.191,0,0,0-6.523.539A4.83,4.83,0,0,0,.941,4.881,1.819,1.819,0,0,0,0,6.462V8.015A1.856,1.856,0,0,0,1.88,9.842h.94a.464.464,0,0,0,.47-.457V5.092A.464.464,0,0,0,2.821,4.635Zm-.47,4.293H1.88a.928.928,0,0,1-.94-.913V6.462a.928.928,0,0,1,.94-.913h.47Z" fill="#fff"/><path d="M220.932,203h-.913a.457.457,0,0,0-.457.457v4.772a.457.457,0,0,1-.457.457h-1.393v.014a.913.913,0,1,0,0,.884v.014h1.393a1.372,1.372,0,0,0,1.37-1.37v-.023h.457a1.829,1.829,0,0,0,1.827-1.827v-1.553A1.829,1.829,0,0,0,220.932,203Zm.913,3.38a.914.914,0,0,1-.913.913h-.457v-3.38h.457a.914.914,0,0,1,.913.913Z" transform="translate(-210.759 -198.056)" fill="#fff"/></g></g><g transform="matrix(1, 0, 0, 1, -4, -4)" filter="url(#c)"><g transform="translate(4 4)" fill="none" stroke="#1c44c5" stroke-width="2"><circle cx="14" cy="14" r="14" stroke="none"/><circle cx="14" cy="14" r="13" fill="none"/></g></g></g></svg>