<?xml version="1.0" encoding="UTF-8"?>
<svg width="16px" height="19px" viewBox="0 0 16 19" version="1.1" xmlns="http://www.w3.org/2000/svg" xmlns:xlink="http://www.w3.org/1999/xlink">
    <!-- Generator: Sketch 58 (84663) - https://sketch.com -->
    <title>stethoscope icon</title>
    <desc>Created with Sketch.</desc>
    <g id="Symbols" stroke="none" stroke-width="1" fill="none" fill-rule="evenodd" opacity="0.601143973">
        <g id="Client-info-1" transform="translate(-426.000000, -61.000000)" fill="#000000">
            <g id="Group-5">
                <g>
                    <g id="Group-17" transform="translate(426.000000, 61.000000)">
                        <g id="stethoscope-icon">
                            <g id="005-doctor-stethoscope">
                                <circle id="Oval" fill-rule="nonzero" cx="8" cy="1" r="1"></circle>
                                <circle id="Oval" fill-rule="nonzero" cx="13" cy="1" r="1"></circle>
                                <path d="M15.6261696,2.2998135 C15.1278263,1.48595102 14.235322,1 13.2386355,1 L13.2386355,1.91732657 C13.8836705,1.91732657 14.4611961,2.23175467 14.7837623,2.75843092 C15.1063284,3.28519889 15.1063284,3.9140551 14.7838595,4.44082307 L11.6591704,9.54395084 C11.3367015,10.0706271 10.7590786,10.3850552 10.1140436,10.3851469 C9.46900858,10.3851469 8.89138563,10.0707188 8.5688195,9.54395084 L5.4442276,4.44073134 C5.12175874,3.9140551 5.12175874,3.28510716 5.4442276,2.75843092 C5.76669646,2.23175467 6.34441668,1.91723484 6.98945167,1.91723484 L6.98945167,1 C5.99276512,1 5.10016354,1.4858593 4.60182027,2.2998135 C4.103477,3.11376769 4.103477,4.08548629 4.60182027,4.89934876 L7.72641217,10.0024765 C8.14197385,10.6811386 8.83204747,11.1305837 9.6276652,11.2615648 L9.6276652,13.7226893 C9.6276652,16.1268536 8.12251871,18.0827652 6.27243268,18.0827652 C4.42234665,18.0827652 2.91729744,16.1268536 2.91729744,13.7226893 L2.91729744,10.7923075 C4.02526736,10.5793255 4.86164359,9.65328523 4.86164359,8.54636622 C4.86164359,7.28250833 3.7711833,6.25428807 2.4308218,6.25428807 C1.0904603,6.25428807 0,7.28250833 0,8.54636622 C0,9.65319351 0.836376238,10.5792338 1.94444343,10.7923075 L1.94444343,13.7226893 C1.94444343,16.6326169 3.88596859,19 6.27243268,19 C8.6587995,19 10.6003247,16.6326169 10.6003247,13.7226893 L10.6003247,11.2615648 C11.3958451,11.1305837 12.086016,10.6811386 12.5014804,10.0024765 L15.6261696,4.89934876 C16.1246101,4.08548629 16.1246101,3.11367597 15.6261696,2.2998135 Z" id="Path" fill-rule="nonzero"></path>
                            </g>
                        </g>
                    </g>
                </g>
            </g>
        </g>
    </g>
</svg>